<svg xmlns="http://www.w3.org/2000/svg" viewBox="0 0 48 48"><path fill="#FFC107" d="M43.6 20.5H42V20H24v8h11.3c-1.6 4.6-6 8-11.3 8-6.9 0-12.5-5.6-12.5-12.5S17.1 11 24 11c3.2 0 6.2 1.2 8.5 3.3l5.7-5.7C34.5 5.1 29.5 3 24 3 12 3 2 13 2 25s10 22 22 22c11 0 21-8 21-22 0-1.5-.2-3-.4-4.5z"/><path fill="#FF3D00" d="M6.3 14.7l6.6 4.8C14.6 16 19 13 24 13c3.2 0 6.2 1.2 8.5 3.3l5.7-5.7C34.5 7.1 29.5 5 24 5 15.7 5 8.5 9.7 6.3 14.7z"/><path fill="#4CAF50" d="M24 47c5.9 0 11.2-2.3 15.2-6l-6-5c-2.3 1.5-5.2 2.4-8.2 2.4-5.3 0-9.7-3.4-11.3-8l-6.6 5.1C9.3 42.7 16.1 47 24 47z"/><path fill="#1976D2" d="M43.6 20.5H42V20H24v8h11.3c-1.1 3.1-3.4 5.7-6.3 7.3l6 5c3.4-3.1 5.7-7.6 5.7-13.3 0-1.5-.2-3-.4-4.5z"/></svg>